<?xml version="1.0" standalone="no"?>
<!DOCTYPE svg PUBLIC "-//W3C//DTD SVG 20010904//EN"
 "http://www.w3.org/TR/2001/REC-SVG-20010904/DTD/svg10.dtd">
<svg version="1.0" xmlns="http://www.w3.org/2000/svg"
 width="225.000000pt" height="225.000000pt" viewBox="0 0 225.000000 225.000000"
 preserveAspectRatio="xMidYMid meet">
<metadata>
Created by potrace 1.14, written by Peter Selinger 2001-2017
</metadata>
<g transform="translate(0.000000,225.000000) scale(0.100000,-0.100000)"
fill="#000000" stroke="none">
<path d="M1070 1927 l-35 -112 -112 0 c-62 -1 -115 -3 -118 -7 -3 -3 35 -34
84 -69 50 -35 90 -69 91 -75 0 -6 -15 -59 -34 -117 -18 -59 -31 -107 -29 -107
3 0 48 32 101 70 94 70 95 70 116 52 25 -22 164 -122 170 -122 2 0 -11 47 -30
105 -19 57 -34 110 -33 117 0 7 40 42 90 77 49 36 89 67 89 70 0 3 -53 6 -117
6 l-117 0 -34 105 c-18 58 -36 108 -40 112 -4 4 -23 -43 -42 -105z"/>
<path d="M430 1925 c-97 -16 -159 -33 -187 -51 -19 -12 -23 -24 -23 -64 l0
-49 -42 -11 c-88 -22 -91 -25 -83 -78 10 -64 10 -107 1 -173 -7 -48 -6 -57 9
-63 17 -6 189 39 213 57 7 5 12 32 12 61 l0 52 48 13 c26 8 103 16 172 18 69
3 129 9 134 13 15 14 12 256 -4 275 -16 19 -129 19 -250 0z"/>
<path d="M1541 1927 c-15 -18 -23 -227 -10 -263 7 -20 16 -22 136 -26 70 -3
149 -11 176 -19 l47 -13 0 -52 c0 -29 5 -56 13 -61 23 -18 195 -63 212 -57 15
6 16 14 9 58 -7 47 -7 76 -1 191 l2 40 -62 19 -62 19 -3 51 c-3 47 -6 52 -38
68 -52 25 -182 49 -300 55 -89 5 -107 3 -119 -10z"/>
<path d="M1080 1381 c-6 -11 -10 -91 -10 -188 l0 -169 -329 0 c-254 -1 -334
-4 -345 -14 -13 -10 -16 -41 -16 -181 l0 -169 -164 0 c-114 0 -167 -4 -172
-12 -12 -18 -10 -379 2 -402 11 -22 43 -23 56 -3 4 7 8 87 8 180 l0 167 310 0
310 0 0 -167 c0 -93 4 -173 8 -179 13 -19 40 -23 53 -8 14 17 20 369 7 405 -7
18 -18 19 -176 19 l-168 0 0 145 0 145 656 0 656 0 0 -142 -1 -143 -169 -5
c-158 -5 -169 -6 -175 -25 -9 -27 -7 -378 3 -393 10 -17 53 -15 60 4 3 9 6 90
6 180 l0 164 310 0 310 0 0 -167 c0 -93 4 -173 8 -179 13 -19 40 -23 53 -7 15
17 21 376 7 406 -8 15 -26 17 -173 17 l-165 0 0 169 c0 141 -3 171 -16 182
-12 10 -89 13 -344 13 -224 0 -331 3 -333 10 -2 6 -3 81 -3 166 1 85 -1 165
-6 178 -9 27 -43 29 -58 3z"/>
</g>
</svg>
